Coordinates
version=1
nRows=8
nColumns=40
inDegrees=yes

Units are S.I. units (second, meters, Newtons, ...)
If the header above contains a line with 'inDegrees', this indicates whether rotational values are in degrees (yes) or radians (no).

endheader
time	pelvis_tilt	pelvis_list	pelvis_rotation	pelvis_tx	pelvis_ty	pelvis_tz	hip_flexion_r	hip_adduction_r	hip_rotation_r	knee_angle_r	knee_angle_r_beta	ankle_angle_r	subtalar_angle_r	mtp_angle_r	hip_flexion_l	hip_adduction_l	hip_rotation_l	knee_angle_l	knee_angle_l_beta	ankle_angle_l	subtalar_angle_l	mtp_angle_l	lumbar_extension	lumbar_bending	lumbar_rotation	arm_flex_r	arm_add_r	arm_rot_r	elbow_flex_r	pro_sup_r	wrist_flex_r	wrist_dev_r	arm_flex_l	arm_add_l	arm_rot_l	elbow_flex_l	pro_sup_l	wrist_flex_l	wrist_dev_l
      4.72500000	      7.41659141	     -4.12592649	   -179.13056053	      0.40059266	      0.64938135	     -1.00334498	     65.56770292	    -49.60878105	     -4.81758329	     60.24903515	      1.05154403	     -3.44946321	      0.00000000	      0.00000000	     54.78009285	    -47.31110675	    -23.02163922	     55.28517939	      0.96490841	     -9.16223492	      0.00000000	      0.00000000	    -62.80522610	      1.14950903	     -1.94698001	     63.50829169	     -5.47606774	     34.08708931	      1.43629721	     71.44482393	      0.00000000	      0.00000000	     53.99689673	     -2.22800451	     25.78745480	      1.19302965	      4.70245663	      0.00000000	      0.00000000
      4.73000000	      7.61990205	     -4.32192373	   -179.17397574	      0.40061442	      0.65010497	     -1.00382533	     65.93149844	    -49.59491763	     -4.57317054	     60.13994680	      1.04964008	     -3.59412176	      0.00000000	      0.00000000	     54.51614403	    -47.13938891	    -23.48967087	     54.95262464	      0.95910423	     -9.31028534	      0.00000000	      0.00000000	    -62.68403159	      0.89709159	     -1.98133479	     63.59773636	     -5.66935356	     32.13723549	      1.38905305	     75.69460986	      0.00000000	      0.00000000	     53.83886265	     -2.22354386	     27.38793104	      1.16531200	      5.06019817	      0.00000000	      0.00000000
      4.73500000	      7.43567774	     -4.18417796	   -179.15444420	      0.40035659	      0.65176306	     -1.00413052	     65.19640270	    -49.59918462	     -5.25782759	     59.89257016	      1.04532255	     -3.64568757	      0.00000000	      0.00000000	     54.15153139	    -47.14698115	    -23.57473349	     54.60563100	      0.95304805	     -9.52671318	      0.00000000	      0.00000000	    -63.00509360	      1.06481139	     -1.92643542	     63.67935126	     -5.56206524	     32.99032770	      1.37956303	     74.42732792	      0.00000000	      0.00000000	     53.94257905	     -2.28554596	     26.86531615	      1.17520361	      5.23518606	      0.00000000	      0.00000000
      4.74000000	      7.50125685	     -4.14912892	   -179.12823795	      0.40020767	      0.65284812	     -1.00443353	     64.97495960	    -49.58730162	     -5.58237631	     59.69906604	      1.04194526	     -3.75402924	      0.00000000	      0.00000000	     54.01918682	    -47.07197212	    -23.67881793	     54.30138022	      0.94773787	     -9.69832373	      0.00000000	      0.00000000	    -63.02079548	      1.03881456	     -1.85785641	     63.67247055	     -5.62232973	     32.49618791	      1.38955978	     75.12211735	      0.00000000	      0.00000000	     53.95726885	     -2.22001441	     26.95448418	      1.16882532	      5.03068059	      0.00000000	      0.00000000
      4.74500000	      7.43373861	     -3.97350303	   -179.04640045	      0.39994414	      0.65426795	     -1.00463835	     64.30660479	    -49.58160674	     -6.29391347	     59.45412080	      1.03767016	     -3.76985397	      0.00000000	      0.00000000	     53.89523819	    -47.03553513	    -23.56805389	     53.97562504	      0.94205237	     -9.92583637	      0.00000000	      0.00000000	    -63.18657816	      1.22407083	     -1.79731928	     63.71606678	     -5.55388784	     33.07004878	      1.37178413	     74.35065388	      0.00000000	      0.00000000	     54.01781161	     -2.25351330	     26.51493711	      1.17013168	      5.05135498	      0.00000000	      0.00000000
      4.75000000	      7.34588398	     -3.89663829	   -179.03445616	      0.39969336	      0.65563001	     -1.00503993	     63.80385320	    -49.57554135	     -6.80346311	     59.24709953	      1.03405696	     -3.82503522	      0.00000000	      0.00000000	     53.59153010	    -47.01245313	    -23.68983225	     53.65488509	      0.93645440	    -10.06955611	      0.00000000	      0.00000000	    -63.36601269	      1.31253682	     -1.75913215	     63.81675972	     -5.53884116	     32.89451901	      1.35920754	     75.55984514	      0.00000000	      0.00000000	     53.98888457	     -2.29247550	     27.13650135	      1.17106077	      5.01508467	      0.00000000	      0.00000000
      4.75500000	      7.27935198	     -3.69249894	   -178.93978504	      0.39951050	      0.65693687	     -1.00521201	     63.16846835	    -49.57360133	     -7.51527848	     59.05580990	      1.03071833	     -3.90643176	      0.00000000	      0.00000000	     53.51615498	    -46.99062024	    -23.53299419	     53.32762395	      0.93074262	    -10.27735290	      0.00000000	      0.00000000	    -63.52006159	      1.48091816	     -1.64162684	     63.80607242	     -5.56729035	     33.63922886	      1.38054963	     75.07138860	      0.00000000	      0.00000000	     54.09944471	     -2.27016678	     26.74026564	      1.15816450	      5.01129482	      0.00000000	      0.00000000
      4.76000000	      7.33201606	     -3.66976117	   -178.93931725	      0.39928413	      0.65803741	     -1.00557372	     62.95556980	    -49.56022367	     -7.83593396	     58.87858143	      1.02762510	     -3.99243805	      0.00000000	      0.00000000	     53.35394442	    -46.93759578	    -23.67410676	     53.04904332	      0.92588047	    -10.44655469	      0.00000000	      0.00000000	    -63.55076971	      1.48485449	     -1.70116488	     63.82749094	     -5.47002583	     33.44958057	      1.36720803	     74.96327314	      0.00000000	      0.00000000	     54.07294700	     -2.36072321	     26.65891316	      1.16281865	      5.25058323	      0.00000000	      0.00000000
